<?xml version="1.0" encoding="UTF-8"?> <svg xmlns="http://www.w3.org/2000/svg" xmlns:xlink="http://www.w3.org/1999/xlink" id="Capa_1" data-name="Capa 1" viewBox="0 0 700 148"><defs><style>.cls-1{fill:none;}.cls-2{fill:#434142;}.cls-3{fill:#717175;}.cls-4{clip-path:url(#clip-path);}.cls-5{clip-path:url(#clip-path-2);}.cls-6{fill:#943b2c;}.cls-7{fill:#953c2d;}.cls-8{fill:#963c2d;}.cls-9{fill:#973d2e;}.cls-10{fill:#983d2e;}.cls-11{fill:#993e2f;}.cls-12{fill:#9a3e30;}.cls-13{fill:#9b3f30;}.cls-14{fill:#9c3f31;}.cls-15{fill:#9d4031;}.cls-16{fill:#9e4032;}.cls-17{fill:#9f4133;}.cls-18{fill:#a04133;}.cls-19{fill:#a14234;}.cls-20{fill:#a24334;}.cls-21{fill:#a34335;}.cls-22{fill:#a44435;}.cls-23{fill:#a54436;}.cls-24{fill:#a64537;}.cls-25{fill:#a74537;}.cls-26{fill:#a84638;}.cls-27{fill:#aa4638;}.cls-28{fill:#ab4739;}.cls-29{fill:#ac473a;}.cls-30{fill:#ad483a;}.cls-31{fill:#ae483b;}.cls-32{fill:#af493b;}.cls-33{fill:#b04a3c;}.cls-34{fill:#b14a3d;}.cls-35{fill:#b24b3d;}.cls-36{fill:#b34b3e;}.cls-37{fill:#b44c3e;}.cls-38{fill:#b54c3f;}.cls-39{fill:#b64d40;}.cls-40{fill:#b74d40;}.cls-41{fill:#b84e41;}.cls-42{fill:#b94e41;}.cls-43{fill:#ba4f42;}.cls-44{fill:#ba5043;}.cls-45{fill:#ba5144;}.cls-46{fill:#bb5145;}.cls-47{fill:#bb5246;}.cls-48{fill:#bb5347;}.cls-49{fill:#bc5448;}.cls-50{fill:#bc5549;}.cls-51{fill:#bc564a;}.cls-52{fill:#bc564b;}.cls-53{fill:#bd574c;}.cls-54{fill:#bd584d;}.cls-55{fill:#bd594e;}.cls-56{fill:#bd5a4f;}.cls-57{fill:#be5b50;}.cls-58{fill:#be5b51;}.cls-59{fill:#be5c52;}.cls-60{fill:#be5d53;}.cls-61{fill:#bf5e54;}.cls-62{fill:#bf5f55;}.cls-63{fill:#bf6056;}.cls-64{fill:#bf6157;}.cls-65{fill:#c06158;}.cls-66{fill:#c06259;}.cls-67{fill:#c0635a;}.cls-68{fill:#c0645b;}.cls-69{fill:#c1655c;}.cls-70{fill:#c1665d;}.cls-71{fill:#c1665e;}.cls-72{fill:#c2675f;}.cls-73{fill:#c26860;}.cls-74{fill:#c26961;}.cls-75{fill:#c26a62;}.cls-76{fill:#c36b63;}.cls-77{fill:#c36c64;}.cls-78{fill:#c36c65;}.cls-79{fill:#c36d66;}.cls-80{fill:#c46e67;}.cls-81{fill:#c46f68;}.cls-82{fill:#c47069;}.cls-83{fill:#c4716a;}.cls-84{fill:#c5726b;}.cls-85{fill:#c5736c;}.cls-86{fill:#c5736d;}.cls-87{fill:#c6746e;}.cls-88{fill:#c6756f;}.cls-89{fill:#c67670;}.cls-90{fill:#c67771;}.cls-91{fill:#c77872;}.cls-92{fill:#c77973;}.cls-93{fill:#c77974;}.cls-94{fill:#c77a75;}.cls-95{fill:#c87b77;}.cls-96{fill:#c87c78;}.cls-97{fill:#c87d79;}.cls-98{fill:#c97e7a;}.cls-99{fill:#c97f7b;}.cls-100{fill:#c97f7c;}.cls-101{fill:#c9807d;}.cls-102{fill:#ca817e;}.cls-103{fill:#ca827f;}.cls-104{fill:#ca8380;}.cls-105{fill:#ca8481;}.cls-106{fill:#cb8582;}.cls-107{fill:#cb8683;}.cls-108{fill:#cb8684;}.cls-109{fill:#cb8785;}.cls-110{fill:#cc8886;}.cls-111{fill:#cc8987;}.cls-112{clip-path:url(#clip-path-3);}.cls-113{clip-path:url(#clip-path-4);}.cls-114{clip-path:url(#clip-path-5);}.cls-115{clip-path:url(#clip-path-6);}</style><clipPath id="clip-path"><path class="cls-1" d="M108.29,48.07c0,14.92,11.34,27.08,25.35,27.08S159.07,63,159.07,48.07s-11.41-27.15-25.43-27.15-25.35,12.16-25.35,27.15"></path></clipPath><clipPath id="clip-path-2"><polygon class="cls-1" points="84.81 48.03 133.68 -8.4 182.55 48.03 133.68 104.47 84.81 48.03"></polygon></clipPath><clipPath id="clip-path-3"><path class="cls-1" d="M69.29,107.05c0,15.83,12,28.6,26.83,28.6s26.76-12.77,26.76-28.6-12-28.54-26.76-28.54S69.29,91.29,69.29,107.05"></path></clipPath><clipPath id="clip-path-4"><polygon class="cls-1" points="44.55 107.08 96.08 47.58 147.62 107.08 96.08 166.59 44.55 107.08"></polygon></clipPath><clipPath id="clip-path-5"><path class="cls-1" d="M8,47.69c0,21,16,38.09,35.68,38.09S79.36,68.72,79.36,47.69,63.37,9.6,43.68,9.6,8,26.65,8,47.69"></path></clipPath><clipPath id="clip-path-6"><polygon class="cls-1" points="-24.99 47.69 43.68 -31.6 112.34 47.69 43.68 126.98 -24.99 47.69"></polygon></clipPath></defs><title>LOGO</title><path class="cls-2" d="M239.81,95.88c0,.18,0,1.12-.13,2.83a14.08,14.08,0,0,1-4.58,9.48,15.05,15.05,0,0,1-9.55,4.65q-7.14.52-18.84.53h-.13q-11.58,0-19-.53a15.18,15.18,0,0,1-9.75-4.58,14.54,14.54,0,0,1-4.57-9.69q-.34-5.52-.34-12.92v-.53q0-11,.13-12.25a19.06,19.06,0,0,1,4.58-10.76,14,14,0,0,1,9.95-4.85q8-.54,19.31-.54t18.64.54a15.31,15.31,0,0,1,9.89,4.58,13.17,13.17,0,0,1,4.24,9.69v.8h-6.33a10.23,10.23,0,0,0-3.49-6.39,9.88,9.88,0,0,0-6.73-2.62q-20.46-.14-25.43-.07t-7.81.07a10,10,0,0,0-7.4,3.16A10.34,10.34,0,0,0,179.4,74V96a10.3,10.3,0,0,0,3.09,7.46,10,10,0,0,0,7.4,3.17q18.57.13,21.13.13t7-.07l5.12-.06a9.77,9.77,0,0,0,7.33-3.17,10.4,10.4,0,0,0,3-7.46v-.14Z"></path><path class="cls-2" d="M315.17,85.12c0,6.72-.09,10.81-.27,12.24a19.36,19.36,0,0,1-4.43,10.5,13.77,13.77,0,0,1-9.94,5q-7.92.52-18.8.53-11.69,0-18.94-.53a14.87,14.87,0,0,1-9.6-4.65,14.65,14.65,0,0,1-4.57-9.62c-.22-3.58-.33-7.85-.33-12.78v-.67q0-11,.14-12.25a19.1,19.1,0,0,1,4.49-10.76,13.74,13.74,0,0,1,9.87-4.85q25.51-.81,37.74,0a15.86,15.86,0,0,1,14.23,14.27q.4,5.52.41,13.32ZM308.71,96V73.85a10.37,10.37,0,0,0-3.09-7.49,9.93,9.93,0,0,0-7.38-3.18Q278,63,273,63.12t-8.52.06a9.16,9.16,0,0,0-6.64,3.18,10.37,10.37,0,0,0-3.09,7.49V96a10.41,10.41,0,0,0,3.09,7.5,9.94,9.94,0,0,0,7.38,3.17q18.52.13,25.57.13a62.32,62.32,0,0,0,9.13-.4c1.38-.27,3.2-1.35,5.43-3.24A9,9,0,0,0,308.71,96Z"></path><path class="cls-2" d="M383.79,85.12l-.13,27.72H377.2v-39a10.49,10.49,0,0,0-3-7.49,9.77,9.77,0,0,0-7.33-3.17q-26.37,0-26.78.14a10.81,10.81,0,0,0-6.79,3.17,9.25,9.25,0,0,0-2.76,6.81v39.54h-6.46V57.67h6.46v2.88a14.09,14.09,0,0,1,8.07-3.29q8.48-.54,15.88-.54t14.8.54A15.31,15.31,0,0,1,379,61.77a14.05,14.05,0,0,1,4.51,9.62Q383.79,78.13,383.79,85.12Z"></path><path class="cls-2" d="M418.51,63.59h-9V113H403V63.59h-9V57.26h9V37.35h6.46V57.26h9Z"></path><path class="cls-2" d="M496.15,111.22V113l-6.46-.14v-3.44c-3,2.29-5.45,3.51-7.47,3.64s-8.36.21-19,.21h-14.8a18.45,18.45,0,0,1-12.92-4.8,16,16,0,0,1-5.25-12.36,17.19,17.19,0,0,1,16.69-17q6.87-.14,15.88-.13h.27q16.27,0,26.64.13v-5.2a10.51,10.51,0,0,0-3-7.47,9.69,9.69,0,0,0-7.33-3.21H449.05a9.72,9.72,0,0,0-6.72,2.69,11.21,11.21,0,0,0-3.64,6.46H432.5a15.72,15.72,0,0,1,4.65-10.43,14.93,14.93,0,0,1,9.62-4.64q7.26-.54,15.87-.54h.14q11.43,0,18.84.54a16.1,16.1,0,0,1,10.09,4.58,12.92,12.92,0,0,1,4.44,9.69ZM489.69,95V85.25H467.55q-14.1.14-19.6.14a11.76,11.76,0,0,0-8.12,2.8A9.88,9.88,0,0,0,436.67,96a9.65,9.65,0,0,0,3.36,7.62,12.57,12.57,0,0,0,8.19,3.08q4.83.13,15,.13,13.29.14,14.36,0Q489.7,105.45,489.69,95Z"></path><path class="cls-2" d="M571.65,113.24H563L533,79.31,513.78,95.55v17.69h-6.46V37.35h6.46V87.27l34.71-29.34h9.81L538,75.24Z"></path><path class="cls-2" d="M605.55,63.59h-9V113h-6.46V63.59h-9V57.26h9V37.35h6.46V57.26h9Z"></path><path class="cls-2" d="M682.92,85.12c0,6.72-.09,10.81-.27,12.24a19.29,19.29,0,0,1-4.43,10.5,13.77,13.77,0,0,1-9.94,5q-7.92.52-18.8.53-11.68,0-18.93-.53a14.88,14.88,0,0,1-9.61-4.65,14.59,14.59,0,0,1-4.56-9.62c-.23-3.58-.34-7.85-.34-12.78v-.67q0-11,.14-12.25a19.1,19.1,0,0,1,4.49-10.76,13.76,13.76,0,0,1,9.88-4.85q25.51-.81,37.73,0a15.88,15.88,0,0,1,14.24,14.27q.39,5.52.4,13.32ZM676.46,96V73.85a10.37,10.37,0,0,0-3.09-7.49A9.93,9.93,0,0,0,666,63.18q-20.26-.13-25.23-.06t-8.53.06a9.18,9.18,0,0,0-6.64,3.18,10.37,10.37,0,0,0-3.09,7.49V96a10.41,10.41,0,0,0,3.09,7.5,10,10,0,0,0,7.38,3.17q18.53.13,25.57.13a62.32,62.32,0,0,0,9.13-.4c1.38-.27,3.2-1.35,5.43-3.24A9,9,0,0,0,676.46,96Z"></path><path class="cls-3" d="M188.83,35.05h2l8.79,17.34h-2.88l-2.61-5.11h-8.36l-2.45,5.11h-2.88Zm4.12,10-3.16-6.25-2.93,6.25Z"></path><path class="cls-3" d="M211.17,43.9h6.58v7.31a20,20,0,0,1-7.18,1.38,11.56,11.56,0,0,1-7.78-2.5,7.82,7.82,0,0,1-2.91-6.16,8.06,8.06,0,0,1,3-6.43,11.21,11.21,0,0,1,7.56-2.57,15.13,15.13,0,0,1,3.14.31,28.61,28.61,0,0,1,3.76,1.16v2.52a15.14,15.14,0,0,0-7-1.79A7.93,7.93,0,0,0,205,39.05a6.24,6.24,0,0,0,0,9.53,8.45,8.45,0,0,0,5.66,1.86,15,15,0,0,0,4-.68l.26-.07V46.1h-3.77Z"></path><path class="cls-3" d="M221.85,35.15H233v2.2h-8.3V42.6h8v2.21h-8v5.36h8.57v2.2H221.85Z"></path><path class="cls-3" d="M251.78,35.15h2.66V52.39H252l-13.1-13.28V52.39h-2.64V35.15h2.27l13.22,13.39Z"></path><path class="cls-3" d="M275.52,48.39v2.72a16.35,16.35,0,0,1-7.12,1.48,12.23,12.23,0,0,1-5.57-1.16,9.29,9.29,0,0,1-3.62-3.2,7.86,7.86,0,0,1-1.33-4.4,8,8,0,0,1,3.05-6.33,11.24,11.24,0,0,1,7.53-2.57,19.56,19.56,0,0,1,6.85,1.42V39a14.91,14.91,0,0,0-6.71-1.73A8.41,8.41,0,0,0,263,39.14a5.86,5.86,0,0,0-2.23,4.69A5.8,5.8,0,0,0,263,48.49a8.44,8.44,0,0,0,5.6,1.83A13.86,13.86,0,0,0,275.52,48.39Z"></path><path class="cls-3" d="M279,35.15h2.81V52.39H279Z"></path><path class="cls-3" d="M292.41,35.05h2l8.78,17.34H300.3l-2.61-5.11h-8.36l-2.45,5.11H284Zm4.13,10-3.17-6.25-2.93,6.25Z"></path><g class="cls-4"><g class="cls-5"><rect class="cls-6" x="84.81" y="-8.4" width="97.74" height="112.86"></rect><ellipse class="cls-6" cx="143.98" cy="36.57" rx="24.45" ry="28.24"></ellipse><ellipse class="cls-7" cx="143.98" cy="36.57" rx="24.04" ry="27.76"></ellipse><ellipse class="cls-8" cx="143.98" cy="36.57" rx="23.62" ry="27.28"></ellipse><ellipse class="cls-9" cx="143.98" cy="36.57" rx="23.2" ry="26.79"></ellipse><ellipse class="cls-10" cx="143.98" cy="36.57" rx="22.79" ry="26.31"></ellipse><ellipse class="cls-11" cx="143.98" cy="36.57" rx="22.37" ry="25.83"></ellipse><ellipse class="cls-12" cx="143.98" cy="36.57" rx="21.95" ry="25.35"></ellipse><ellipse class="cls-13" cx="143.98" cy="36.57" rx="21.53" ry="24.87"></ellipse><ellipse class="cls-14" cx="143.98" cy="36.57" rx="21.12" ry="24.39"></ellipse><ellipse class="cls-15" cx="143.98" cy="36.57" rx="20.7" ry="23.9"></ellipse><ellipse class="cls-16" cx="143.98" cy="36.57" rx="20.28" ry="23.42"></ellipse><ellipse class="cls-17" cx="143.98" cy="36.57" rx="19.87" ry="22.94"></ellipse><ellipse class="cls-18" cx="143.98" cy="36.57" rx="19.45" ry="22.46"></ellipse><ellipse class="cls-19" cx="143.98" cy="36.57" rx="19.03" ry="21.98"></ellipse><ellipse class="cls-20" cx="143.98" cy="36.57" rx="18.61" ry="21.5"></ellipse><ellipse class="cls-21" cx="143.98" cy="36.57" rx="18.2" ry="21.01"></ellipse><ellipse class="cls-22" cx="143.98" cy="36.57" rx="17.78" ry="20.53"></ellipse><ellipse class="cls-23" cx="143.98" cy="36.57" rx="17.36" ry="20.05"></ellipse><ellipse class="cls-24" cx="143.98" cy="36.57" rx="16.95" ry="19.57"></ellipse><ellipse class="cls-25" cx="143.98" cy="36.57" rx="16.53" ry="19.09"></ellipse><ellipse class="cls-26" cx="143.98" cy="36.57" rx="16.11" ry="18.6"></ellipse><ellipse class="cls-27" cx="143.98" cy="36.57" rx="15.69" ry="18.12"></ellipse><ellipse class="cls-28" cx="143.98" cy="36.57" rx="15.28" ry="17.64"></ellipse><ellipse class="cls-29" cx="143.98" cy="36.57" rx="14.86" ry="17.16"></ellipse><ellipse class="cls-30" cx="143.98" cy="36.57" rx="14.44" ry="16.68"></ellipse><ellipse class="cls-31" cx="143.98" cy="36.57" rx="14.03" ry="16.2"></ellipse><ellipse class="cls-32" cx="143.98" cy="36.57" rx="13.61" ry="15.71"></ellipse><ellipse class="cls-33" cx="143.98" cy="36.57" rx="13.19" ry="15.23"></ellipse><ellipse class="cls-34" cx="143.98" cy="36.57" rx="12.77" ry="14.75"></ellipse><ellipse class="cls-35" cx="143.98" cy="36.57" rx="12.36" ry="14.27"></ellipse><ellipse class="cls-36" cx="143.98" cy="36.57" rx="11.94" ry="13.79"></ellipse><ellipse class="cls-37" cx="143.98" cy="36.57" rx="11.52" ry="13.31"></ellipse><ellipse class="cls-38" cx="143.98" cy="36.57" rx="11.11" ry="12.82"></ellipse><ellipse class="cls-39" cx="143.98" cy="36.57" rx="10.69" ry="12.34"></ellipse><ellipse class="cls-40" cx="143.98" cy="36.57" rx="10.27" ry="11.86"></ellipse><ellipse class="cls-41" cx="143.98" cy="36.57" rx="9.85" ry="11.38"></ellipse><ellipse class="cls-42" cx="143.98" cy="36.57" rx="9.44" ry="10.9"></ellipse><ellipse class="cls-43" cx="143.98" cy="36.57" rx="9.02" ry="10.42"></ellipse><ellipse class="cls-43" cx="143.98" cy="36.57" rx="8.6" ry="9.93"></ellipse><ellipse class="cls-44" cx="143.98" cy="36.57" rx="8.48" ry="9.79"></ellipse><ellipse class="cls-45" cx="143.98" cy="36.57" rx="8.35" ry="9.65"></ellipse><ellipse class="cls-46" cx="143.98" cy="36.57" rx="8.23" ry="9.5"></ellipse><ellipse class="cls-47" cx="143.98" cy="36.57" rx="8.1" ry="9.36"></ellipse><ellipse class="cls-48" cx="143.98" cy="36.57" rx="7.98" ry="9.21"></ellipse><ellipse class="cls-49" cx="143.98" cy="36.57" rx="7.85" ry="9.07"></ellipse><ellipse class="cls-50" cx="143.98" cy="36.57" rx="7.73" ry="8.93"></ellipse><ellipse class="cls-51" cx="143.98" cy="36.57" rx="7.6" ry="8.78"></ellipse><ellipse class="cls-52" cx="143.98" cy="36.57" rx="7.48" ry="8.64"></ellipse><ellipse class="cls-53" cx="143.98" cy="36.57" rx="7.36" ry="8.49"></ellipse><ellipse class="cls-54" cx="143.98" cy="36.57" rx="7.23" ry="8.35"></ellipse><ellipse class="cls-55" cx="143.98" cy="36.57" rx="7.11" ry="8.21"></ellipse><ellipse class="cls-56" cx="143.98" cy="36.57" rx="6.98" ry="8.06"></ellipse><ellipse class="cls-57" cx="143.98" cy="36.57" rx="6.86" ry="7.92"></ellipse><ellipse class="cls-58" cx="143.98" cy="36.57" rx="6.73" ry="7.77"></ellipse><ellipse class="cls-59" cx="143.98" cy="36.57" rx="6.61" ry="7.63"></ellipse><ellipse class="cls-60" cx="143.98" cy="36.57" rx="6.48" ry="7.49"></ellipse><ellipse class="cls-61" cx="143.98" cy="36.57" rx="6.36" ry="7.34"></ellipse><ellipse class="cls-62" cx="143.98" cy="36.57" rx="6.23" ry="7.2"></ellipse><ellipse class="cls-63" cx="143.98" cy="36.57" rx="6.11" ry="7.05"></ellipse><ellipse class="cls-64" cx="143.98" cy="36.57" rx="5.98" ry="6.91"></ellipse><ellipse class="cls-65" cx="143.98" cy="36.57" rx="5.86" ry="6.77"></ellipse><ellipse class="cls-66" cx="143.98" cy="36.57" rx="5.73" ry="6.62"></ellipse><ellipse class="cls-67" cx="143.98" cy="36.57" rx="5.61" ry="6.48"></ellipse><ellipse class="cls-68" cx="143.98" cy="36.57" rx="5.49" ry="6.33"></ellipse><ellipse class="cls-69" cx="143.98" cy="36.57" rx="5.36" ry="6.19"></ellipse><ellipse class="cls-70" cx="143.98" cy="36.57" rx="5.24" ry="6.05"></ellipse><ellipse class="cls-71" cx="143.98" cy="36.57" rx="5.11" ry="5.9"></ellipse><ellipse class="cls-72" cx="143.98" cy="36.57" rx="4.99" ry="5.76"></ellipse><ellipse class="cls-73" cx="143.98" cy="36.57" rx="4.86" ry="5.61"></ellipse><ellipse class="cls-74" cx="143.98" cy="36.57" rx="4.74" ry="5.47"></ellipse><ellipse class="cls-75" cx="143.98" cy="36.57" rx="4.61" ry="5.33"></ellipse><ellipse class="cls-76" cx="143.98" cy="36.57" rx="4.49" ry="5.18"></ellipse><ellipse class="cls-77" cx="143.98" cy="36.57" rx="4.36" ry="5.04"></ellipse><ellipse class="cls-78" cx="143.98" cy="36.57" rx="4.24" ry="4.89"></ellipse><ellipse class="cls-79" cx="143.98" cy="36.57" rx="4.11" ry="4.75"></ellipse><ellipse class="cls-80" cx="143.98" cy="36.57" rx="3.99" ry="4.61"></ellipse><ellipse class="cls-81" cx="143.98" cy="36.57" rx="3.86" ry="4.46"></ellipse><ellipse class="cls-82" cx="143.98" cy="36.57" rx="3.74" ry="4.32"></ellipse><ellipse class="cls-83" cx="143.98" cy="36.57" rx="3.62" ry="4.17"></ellipse><ellipse class="cls-84" cx="143.98" cy="36.57" rx="3.49" ry="4.03"></ellipse><ellipse class="cls-85" cx="143.98" cy="36.57" rx="3.37" ry="3.89"></ellipse><ellipse class="cls-86" cx="143.98" cy="36.57" rx="3.24" ry="3.74"></ellipse><ellipse class="cls-87" cx="143.98" cy="36.57" rx="3.12" ry="3.6"></ellipse><ellipse class="cls-88" cx="143.98" cy="36.57" rx="2.99" ry="3.46"></ellipse><ellipse class="cls-89" cx="143.98" cy="36.57" rx="2.87" ry="3.31"></ellipse><ellipse class="cls-90" cx="143.98" cy="36.57" rx="2.74" ry="3.17"></ellipse><ellipse class="cls-91" cx="143.98" cy="36.57" rx="2.62" ry="3.02"></ellipse><ellipse class="cls-92" cx="143.98" cy="36.57" rx="2.49" ry="2.88"></ellipse><ellipse class="cls-93" cx="143.98" cy="36.57" rx="2.37" ry="2.74"></ellipse><ellipse class="cls-94" cx="143.98" cy="36.57" rx="2.24" ry="2.59"></ellipse><ellipse class="cls-95" cx="143.98" cy="36.57" rx="2.12" ry="2.45"></ellipse><ellipse class="cls-96" cx="143.98" cy="36.57" rx="1.99" ry="2.3"></ellipse><ellipse class="cls-97" cx="143.98" cy="36.57" rx="1.87" ry="2.16"></ellipse><ellipse class="cls-98" cx="143.98" cy="36.57" rx="1.75" ry="2.02"></ellipse><ellipse class="cls-99" cx="143.98" cy="36.57" rx="1.62" ry="1.87"></ellipse><ellipse class="cls-100" cx="143.98" cy="36.57" rx="1.5" ry="1.73"></ellipse><ellipse class="cls-101" cx="143.98" cy="36.57" rx="1.37" ry="1.58"></ellipse><ellipse class="cls-102" cx="143.98" cy="36.57" rx="1.25" ry="1.44"></ellipse><ellipse class="cls-103" cx="143.98" cy="36.57" rx="1.12" ry="1.3"></ellipse><ellipse class="cls-104" cx="143.98" cy="36.57" rx="1" ry="1.15"></ellipse><ellipse class="cls-105" cx="143.98" cy="36.57" rx="0.87" ry="1.01"></ellipse><ellipse class="cls-106" cx="143.98" cy="36.57" rx="0.75" ry="0.86"></ellipse><ellipse class="cls-107" cx="143.98" cy="36.57" rx="0.62" ry="0.72"></ellipse><ellipse class="cls-108" cx="143.98" cy="36.57" rx="0.5" ry="0.58"></ellipse><ellipse class="cls-109" cx="143.98" cy="36.57" rx="0.37" ry="0.43"></ellipse><ellipse class="cls-110" cx="143.98" cy="36.57" rx="0.25" ry="0.29"></ellipse><ellipse class="cls-111" cx="143.98" cy="36.57" rx="0.12" ry="0.14"></ellipse></g></g><g class="cls-112"><g class="cls-113"><rect class="cls-6" x="44.55" y="47.58" width="103.06" height="119.01"></rect><ellipse class="cls-6" cx="104.41" cy="98.87" rx="25.79" ry="29.78"></ellipse><ellipse class="cls-7" cx="104.41" cy="98.87" rx="25.35" ry="29.27"></ellipse><ellipse class="cls-8" cx="104.41" cy="98.87" rx="24.91" ry="28.76"></ellipse><ellipse class="cls-9" cx="104.41" cy="98.87" rx="24.47" ry="28.25"></ellipse><ellipse class="cls-10" cx="104.41" cy="98.87" rx="24.03" ry="27.75"></ellipse><ellipse class="cls-11" cx="104.41" cy="98.87" rx="23.59" ry="27.24"></ellipse><ellipse class="cls-12" cx="104.41" cy="98.87" rx="23.15" ry="26.73"></ellipse><ellipse class="cls-13" cx="104.41" cy="98.87" rx="22.71" ry="26.22"></ellipse><ellipse class="cls-14" cx="104.41" cy="98.87" rx="22.27" ry="25.71"></ellipse><ellipse class="cls-15" cx="104.41" cy="98.87" rx="21.83" ry="25.21"></ellipse><ellipse class="cls-16" cx="104.41" cy="98.87" rx="21.39" ry="24.7"></ellipse><ellipse class="cls-17" cx="104.41" cy="98.87" rx="20.95" ry="24.19"></ellipse><ellipse class="cls-18" cx="104.41" cy="98.87" rx="20.51" ry="23.68"></ellipse><ellipse class="cls-19" cx="104.41" cy="98.87" rx="20.07" ry="23.17"></ellipse><ellipse class="cls-20" cx="104.41" cy="98.87" rx="19.63" ry="22.67"></ellipse><ellipse class="cls-21" cx="104.41" cy="98.87" rx="19.19" ry="22.16"></ellipse><ellipse class="cls-22" cx="104.41" cy="98.87" rx="18.75" ry="21.65"></ellipse><ellipse class="cls-23" cx="104.41" cy="98.87" rx="18.31" ry="21.14"></ellipse><ellipse class="cls-24" cx="104.41" cy="98.87" rx="17.87" ry="20.63"></ellipse><ellipse class="cls-25" cx="104.41" cy="98.87" rx="17.43" ry="20.13"></ellipse><ellipse class="cls-26" cx="104.41" cy="98.87" rx="16.99" ry="19.62"></ellipse><ellipse class="cls-27" cx="104.41" cy="98.87" rx="16.55" ry="19.11"></ellipse><ellipse class="cls-28" cx="104.41" cy="98.87" rx="16.11" ry="18.6"></ellipse><ellipse class="cls-29" cx="104.41" cy="98.87" rx="15.67" ry="18.09"></ellipse><ellipse class="cls-30" cx="104.41" cy="98.87" rx="15.23" ry="17.59"></ellipse><ellipse class="cls-31" cx="104.41" cy="98.87" rx="14.79" ry="17.08"></ellipse><ellipse class="cls-32" cx="104.41" cy="98.87" rx="14.35" ry="16.57"></ellipse><ellipse class="cls-33" cx="104.41" cy="98.87" rx="13.91" ry="16.06"></ellipse><ellipse class="cls-34" cx="104.41" cy="98.87" rx="13.47" ry="15.55"></ellipse><ellipse class="cls-35" cx="104.41" cy="98.87" rx="13.03" ry="15.05"></ellipse><ellipse class="cls-36" cx="104.41" cy="98.87" rx="12.59" ry="14.54"></ellipse><ellipse class="cls-37" cx="104.41" cy="98.87" rx="12.15" ry="14.03"></ellipse><ellipse class="cls-38" cx="104.41" cy="98.87" rx="11.71" ry="13.52"></ellipse><ellipse class="cls-39" cx="104.41" cy="98.87" rx="11.27" ry="13.01"></ellipse><ellipse class="cls-40" cx="104.41" cy="98.87" rx="10.83" ry="12.51"></ellipse><ellipse class="cls-41" cx="104.41" cy="98.87" rx="10.39" ry="12"></ellipse><ellipse class="cls-42" cx="104.41" cy="98.87" rx="9.95" ry="11.49"></ellipse><ellipse class="cls-43" cx="104.41" cy="98.87" rx="9.51" ry="10.98"></ellipse><ellipse class="cls-43" cx="104.41" cy="98.87" rx="9.07" ry="10.47"></ellipse><ellipse class="cls-44" cx="104.41" cy="98.87" rx="8.94" ry="10.32"></ellipse><ellipse class="cls-45" cx="104.41" cy="98.87" rx="8.81" ry="10.17"></ellipse><ellipse class="cls-46" cx="104.41" cy="98.87" rx="8.68" ry="10.02"></ellipse><ellipse class="cls-47" cx="104.41" cy="98.87" rx="8.54" ry="9.87"></ellipse><ellipse class="cls-48" cx="104.41" cy="98.87" rx="8.41" ry="9.72"></ellipse><ellipse class="cls-49" cx="104.41" cy="98.87" rx="8.28" ry="9.56"></ellipse><ellipse class="cls-50" cx="104.41" cy="98.87" rx="8.15" ry="9.41"></ellipse><ellipse class="cls-51" cx="104.41" cy="98.87" rx="8.02" ry="9.26"></ellipse><ellipse class="cls-52" cx="104.41" cy="98.87" rx="7.89" ry="9.11"></ellipse><ellipse class="cls-53" cx="104.41" cy="98.87" rx="7.76" ry="8.96"></ellipse><ellipse class="cls-54" cx="104.41" cy="98.87" rx="7.62" ry="8.8"></ellipse><ellipse class="cls-55" cx="104.41" cy="98.87" rx="7.49" ry="8.65"></ellipse><ellipse class="cls-56" cx="104.41" cy="98.87" rx="7.36" ry="8.5"></ellipse><ellipse class="cls-57" cx="104.41" cy="98.87" rx="7.23" ry="8.35"></ellipse><ellipse class="cls-58" cx="104.41" cy="98.87" rx="7.1" ry="8.2"></ellipse><ellipse class="cls-59" cx="104.41" cy="98.87" rx="6.97" ry="8.05"></ellipse><ellipse class="cls-60" cx="104.41" cy="98.87" rx="6.84" ry="7.89"></ellipse><ellipse class="cls-61" cx="104.41" cy="98.87" rx="6.7" ry="7.74"></ellipse><ellipse class="cls-62" cx="104.41" cy="98.87" rx="6.57" ry="7.59"></ellipse><ellipse class="cls-63" cx="104.41" cy="98.87" rx="6.44" ry="7.44"></ellipse><ellipse class="cls-64" cx="104.41" cy="98.87" rx="6.31" ry="7.29"></ellipse><ellipse class="cls-65" cx="104.41" cy="98.87" rx="6.18" ry="7.14"></ellipse><ellipse class="cls-66" cx="104.41" cy="98.87" rx="6.05" ry="6.98"></ellipse><ellipse class="cls-67" cx="104.41" cy="98.87" rx="5.92" ry="6.83"></ellipse><ellipse class="cls-68" cx="104.41" cy="98.87" rx="5.78" ry="6.68"></ellipse><ellipse class="cls-69" cx="104.41" cy="98.87" rx="5.65" ry="6.53"></ellipse><ellipse class="cls-70" cx="104.41" cy="98.87" rx="5.52" ry="6.38"></ellipse><ellipse class="cls-71" cx="104.41" cy="98.87" rx="5.39" ry="6.22"></ellipse><ellipse class="cls-72" cx="104.41" cy="98.87" rx="5.26" ry="6.07"></ellipse><ellipse class="cls-73" cx="104.41" cy="98.87" rx="5.13" ry="5.92"></ellipse><ellipse class="cls-74" cx="104.41" cy="98.87" rx="5" ry="5.77"></ellipse><ellipse class="cls-75" cx="104.41" cy="98.87" rx="4.86" ry="5.62"></ellipse><ellipse class="cls-76" cx="104.41" cy="98.87" rx="4.73" ry="5.47"></ellipse><ellipse class="cls-77" cx="104.41" cy="98.87" rx="4.6" ry="5.31"></ellipse><ellipse class="cls-78" cx="104.41" cy="98.87" rx="4.47" ry="5.16"></ellipse><ellipse class="cls-79" cx="104.41" cy="98.87" rx="4.34" ry="5.01"></ellipse><ellipse class="cls-80" cx="104.41" cy="98.87" rx="4.21" ry="4.86"></ellipse><ellipse class="cls-81" cx="104.41" cy="98.87" rx="4.08" ry="4.71"></ellipse><ellipse class="cls-82" cx="104.41" cy="98.87" rx="3.94" ry="4.55"></ellipse><ellipse class="cls-83" cx="104.41" cy="98.87" rx="3.81" ry="4.4"></ellipse><ellipse class="cls-84" cx="104.41" cy="98.87" rx="3.68" ry="4.25"></ellipse><ellipse class="cls-85" cx="104.41" cy="98.87" rx="3.55" ry="4.1"></ellipse><ellipse class="cls-86" cx="104.41" cy="98.87" rx="3.42" ry="3.95"></ellipse><ellipse class="cls-87" cx="104.41" cy="98.87" rx="3.29" ry="3.8"></ellipse><ellipse class="cls-88" cx="104.41" cy="98.87" rx="3.16" ry="3.64"></ellipse><ellipse class="cls-89" cx="104.41" cy="98.87" rx="3.02" ry="3.49"></ellipse><ellipse class="cls-90" cx="104.41" cy="98.87" rx="2.89" ry="3.34"></ellipse><ellipse class="cls-91" cx="104.41" cy="98.87" rx="2.76" ry="3.19"></ellipse><ellipse class="cls-92" cx="104.41" cy="98.87" rx="2.63" ry="3.04"></ellipse><ellipse class="cls-93" cx="104.41" cy="98.87" rx="2.5" ry="2.88"></ellipse><ellipse class="cls-94" cx="104.41" cy="98.87" rx="2.37" ry="2.73"></ellipse><ellipse class="cls-95" cx="104.41" cy="98.87" rx="2.23" ry="2.58"></ellipse><ellipse class="cls-96" cx="104.41" cy="98.87" rx="2.1" ry="2.43"></ellipse><ellipse class="cls-97" cx="104.41" cy="98.87" rx="1.97" ry="2.28"></ellipse><ellipse class="cls-98" cx="104.41" cy="98.87" rx="1.84" ry="2.13"></ellipse><ellipse class="cls-99" cx="104.41" cy="98.87" rx="1.71" ry="1.97"></ellipse><ellipse class="cls-100" cx="104.41" cy="98.87" rx="1.58" ry="1.82"></ellipse><ellipse class="cls-101" cx="104.41" cy="98.87" rx="1.45" ry="1.67"></ellipse><ellipse class="cls-102" cx="104.41" cy="98.87" rx="1.31" ry="1.52"></ellipse><ellipse class="cls-103" cx="104.41" cy="98.87" rx="1.18" ry="1.37"></ellipse><ellipse class="cls-104" cx="104.41" cy="98.87" rx="1.05" ry="1.21"></ellipse><ellipse class="cls-105" cx="104.41" cy="98.87" rx="0.92" ry="1.06"></ellipse><ellipse class="cls-106" cx="104.41" cy="98.87" rx="0.79" ry="0.91"></ellipse><ellipse class="cls-107" cx="104.41" cy="98.87" rx="0.66" ry="0.76"></ellipse><ellipse class="cls-108" cx="104.41" cy="98.87" rx="0.53" ry="0.61"></ellipse><ellipse class="cls-109" cx="104.41" cy="98.87" rx="0.39" ry="0.46"></ellipse><ellipse class="cls-110" cx="104.41" cy="98.87" rx="0.26" ry="0.3"></ellipse><ellipse class="cls-111" cx="104.41" cy="98.87" rx="0.13" ry="0.15"></ellipse></g></g><g class="cls-114"><g class="cls-115"><rect class="cls-6" x="-24.99" y="-31.6" width="137.33" height="158.58"></rect><ellipse class="cls-6" cx="54.38" cy="34.46" rx="34.36" ry="39.68"></ellipse><ellipse class="cls-7" cx="54.38" cy="34.46" rx="33.77" ry="39"></ellipse><ellipse class="cls-8" cx="54.38" cy="34.46" rx="33.19" ry="38.32"></ellipse><ellipse class="cls-9" cx="54.38" cy="34.46" rx="32.6" ry="37.65"></ellipse><ellipse class="cls-10" cx="54.38" cy="34.46" rx="32.02" ry="36.97"></ellipse><ellipse class="cls-11" cx="54.38" cy="34.46" rx="31.43" ry="36.29"></ellipse><ellipse class="cls-12" cx="54.38" cy="34.46" rx="30.84" ry="35.62"></ellipse><ellipse class="cls-13" cx="54.38" cy="34.46" rx="30.26" ry="34.94"></ellipse><ellipse class="cls-14" cx="54.38" cy="34.46" rx="29.67" ry="34.26"></ellipse><ellipse class="cls-15" cx="54.38" cy="34.46" rx="29.09" ry="33.59"></ellipse><ellipse class="cls-16" cx="54.38" cy="34.46" rx="28.5" ry="32.91"></ellipse><ellipse class="cls-17" cx="54.38" cy="34.46" rx="27.91" ry="32.23"></ellipse><ellipse class="cls-18" cx="54.38" cy="34.46" rx="27.33" ry="31.56"></ellipse><ellipse class="cls-19" cx="54.38" cy="34.46" rx="26.74" ry="30.88"></ellipse><ellipse class="cls-20" cx="54.38" cy="34.46" rx="26.15" ry="30.2"></ellipse><ellipse class="cls-21" cx="54.38" cy="34.46" rx="25.57" ry="29.53"></ellipse><ellipse class="cls-22" cx="54.38" cy="34.46" rx="24.98" ry="28.85"></ellipse><ellipse class="cls-23" cx="54.38" cy="34.46" rx="24.4" ry="28.17"></ellipse><ellipse class="cls-24" cx="54.38" cy="34.46" rx="23.81" ry="27.49"></ellipse><ellipse class="cls-25" cx="54.38" cy="34.46" rx="23.22" ry="26.82"></ellipse><ellipse class="cls-26" cx="54.38" cy="34.46" rx="22.64" ry="26.14"></ellipse><ellipse class="cls-27" cx="54.38" cy="34.46" rx="22.05" ry="25.46"></ellipse><ellipse class="cls-28" cx="54.38" cy="34.46" rx="21.47" ry="24.79"></ellipse><ellipse class="cls-29" cx="54.38" cy="34.46" rx="20.88" ry="24.11"></ellipse><ellipse class="cls-30" cx="54.38" cy="34.46" rx="20.29" ry="23.43"></ellipse><ellipse class="cls-31" cx="54.38" cy="34.46" rx="19.71" ry="22.76"></ellipse><ellipse class="cls-32" cx="54.38" cy="34.46" rx="19.12" ry="22.08"></ellipse><ellipse class="cls-33" cx="54.38" cy="34.46" rx="18.53" ry="21.4"></ellipse><ellipse class="cls-34" cx="54.38" cy="34.46" rx="17.95" ry="20.73"></ellipse><ellipse class="cls-35" cx="54.38" cy="34.46" rx="17.36" ry="20.05"></ellipse><ellipse class="cls-36" cx="54.38" cy="34.46" rx="16.78" ry="19.37"></ellipse><ellipse class="cls-37" cx="54.38" cy="34.46" rx="16.19" ry="18.7"></ellipse><ellipse class="cls-38" cx="54.38" cy="34.46" rx="15.6" ry="18.02"></ellipse><ellipse class="cls-39" cx="54.38" cy="34.46" rx="15.02" ry="17.34"></ellipse><ellipse class="cls-40" cx="54.38" cy="34.46" rx="14.43" ry="16.66"></ellipse><ellipse class="cls-41" cx="54.38" cy="34.46" rx="13.85" ry="15.99"></ellipse><ellipse class="cls-42" cx="54.38" cy="34.46" rx="13.26" ry="15.31"></ellipse><ellipse class="cls-43" cx="54.38" cy="34.46" rx="12.67" ry="14.63"></ellipse><ellipse class="cls-43" cx="54.38" cy="34.46" rx="12.09" ry="13.96"></ellipse><ellipse class="cls-44" cx="54.38" cy="34.46" rx="11.91" ry="13.76"></ellipse><ellipse class="cls-45" cx="54.38" cy="34.46" rx="11.74" ry="13.55"></ellipse><ellipse class="cls-46" cx="54.38" cy="34.46" rx="11.56" ry="13.35"></ellipse><ellipse class="cls-47" cx="54.38" cy="34.46" rx="11.39" ry="13.15"></ellipse><ellipse class="cls-48" cx="54.38" cy="34.46" rx="11.21" ry="12.95"></ellipse><ellipse class="cls-49" cx="54.38" cy="34.46" rx="11.04" ry="12.74"></ellipse><ellipse class="cls-50" cx="54.38" cy="34.46" rx="10.86" ry="12.54"></ellipse><ellipse class="cls-51" cx="54.38" cy="34.46" rx="10.69" ry="12.34"></ellipse><ellipse class="cls-52" cx="54.38" cy="34.46" rx="10.51" ry="12.14"></ellipse><ellipse class="cls-53" cx="54.38" cy="34.46" rx="10.33" ry="11.93"></ellipse><ellipse class="cls-54" cx="54.38" cy="34.46" rx="10.16" ry="11.73"></ellipse><ellipse class="cls-55" cx="54.38" cy="34.46" rx="9.98" ry="11.53"></ellipse><ellipse class="cls-56" cx="54.38" cy="34.46" rx="9.81" ry="11.33"></ellipse><ellipse class="cls-57" cx="54.38" cy="34.46" rx="9.63" ry="11.13"></ellipse><ellipse class="cls-58" cx="54.38" cy="34.46" rx="9.46" ry="10.92"></ellipse><ellipse class="cls-59" cx="54.38" cy="34.46" rx="9.28" ry="10.72"></ellipse><ellipse class="cls-60" cx="54.38" cy="34.46" rx="9.11" ry="10.52"></ellipse><ellipse class="cls-61" cx="54.38" cy="34.46" rx="8.93" ry="10.32"></ellipse><ellipse class="cls-62" cx="54.38" cy="34.46" rx="8.76" ry="10.11"></ellipse><ellipse class="cls-63" cx="54.38" cy="34.46" rx="8.58" ry="9.91"></ellipse><ellipse class="cls-64" cx="54.38" cy="34.46" rx="8.41" ry="9.71"></ellipse><ellipse class="cls-65" cx="54.38" cy="34.46" rx="8.23" ry="9.51"></ellipse><ellipse class="cls-66" cx="54.38" cy="34.46" rx="8.06" ry="9.3"></ellipse><ellipse class="cls-67" cx="54.38" cy="34.46" rx="7.88" ry="9.1"></ellipse><ellipse class="cls-68" cx="54.38" cy="34.46" rx="7.71" ry="8.9"></ellipse><ellipse class="cls-69" cx="54.38" cy="34.46" rx="7.53" ry="8.7"></ellipse><ellipse class="cls-70" cx="54.38" cy="34.46" rx="7.36" ry="8.5"></ellipse><ellipse class="cls-71" cx="54.38" cy="34.46" rx="7.18" ry="8.29"></ellipse><ellipse class="cls-72" cx="54.38" cy="34.46" rx="7.01" ry="8.09"></ellipse><ellipse class="cls-73" cx="54.38" cy="34.46" rx="6.83" ry="7.89"></ellipse><ellipse class="cls-74" cx="54.38" cy="34.46" rx="6.66" ry="7.69"></ellipse><ellipse class="cls-75" cx="54.38" cy="34.46" rx="6.48" ry="7.48"></ellipse><ellipse class="cls-76" cx="54.38" cy="34.46" rx="6.31" ry="7.28"></ellipse><ellipse class="cls-77" cx="54.38" cy="34.46" rx="6.13" ry="7.08"></ellipse><ellipse class="cls-78" cx="54.38" cy="34.46" rx="5.96" ry="6.88"></ellipse><ellipse class="cls-79" cx="54.38" cy="34.46" rx="5.78" ry="6.68"></ellipse><ellipse class="cls-80" cx="54.38" cy="34.46" rx="5.61" ry="6.47"></ellipse><ellipse class="cls-81" cx="54.38" cy="34.46" rx="5.43" ry="6.27"></ellipse><ellipse class="cls-82" cx="54.38" cy="34.46" rx="5.26" ry="6.07"></ellipse><ellipse class="cls-83" cx="54.38" cy="34.46" rx="5.08" ry="5.87"></ellipse><ellipse class="cls-84" cx="54.38" cy="34.46" rx="4.9" ry="5.66"></ellipse><ellipse class="cls-85" cx="54.38" cy="34.46" rx="4.73" ry="5.46"></ellipse><ellipse class="cls-86" cx="54.38" cy="34.46" rx="4.55" ry="5.26"></ellipse><ellipse class="cls-87" cx="54.38" cy="34.46" rx="4.38" ry="5.06"></ellipse><ellipse class="cls-88" cx="54.38" cy="34.46" rx="4.2" ry="4.85"></ellipse><ellipse class="cls-89" cx="54.38" cy="34.46" rx="4.03" ry="4.65"></ellipse><ellipse class="cls-90" cx="54.38" cy="34.46" rx="3.85" ry="4.45"></ellipse><ellipse class="cls-91" cx="54.38" cy="34.46" rx="3.68" ry="4.25"></ellipse><ellipse class="cls-92" cx="54.38" cy="34.46" rx="3.5" ry="4.05"></ellipse><ellipse class="cls-93" cx="54.38" cy="34.46" rx="3.33" ry="3.84"></ellipse><ellipse class="cls-94" cx="54.38" cy="34.46" rx="3.15" ry="3.64"></ellipse><ellipse class="cls-95" cx="54.38" cy="34.46" rx="2.98" ry="3.44"></ellipse><ellipse class="cls-96" cx="54.38" cy="34.46" rx="2.8" ry="3.24"></ellipse><ellipse class="cls-97" cx="54.38" cy="34.46" rx="2.63" ry="3.03"></ellipse><ellipse class="cls-98" cx="54.38" cy="34.46" rx="2.45" ry="2.83"></ellipse><ellipse class="cls-99" cx="54.38" cy="34.46" rx="2.28" ry="2.63"></ellipse><ellipse class="cls-100" cx="54.38" cy="34.46" rx="2.1" ry="2.43"></ellipse><ellipse class="cls-101" cx="54.38" cy="34.46" rx="1.93" ry="2.23"></ellipse><ellipse class="cls-102" cx="54.38" cy="34.46" rx="1.75" ry="2.02"></ellipse><ellipse class="cls-103" cx="54.38" cy="34.46" rx="1.58" ry="1.82"></ellipse><ellipse class="cls-104" cx="54.38" cy="34.46" rx="1.4" ry="1.62"></ellipse><ellipse class="cls-105" cx="54.38" cy="34.46" rx="1.23" ry="1.42"></ellipse><ellipse class="cls-106" cx="54.38" cy="34.46" rx="1.05" ry="1.21"></ellipse><ellipse class="cls-107" cx="54.38" cy="34.46" rx="0.88" ry="1.01"></ellipse><ellipse class="cls-108" cx="54.38" cy="34.46" rx="0.7" ry="0.81"></ellipse><ellipse class="cls-109" cx="54.38" cy="34.46" rx="0.53" ry="0.61"></ellipse><ellipse class="cls-110" cx="54.38" cy="34.46" rx="0.35" ry="0.4"></ellipse><ellipse class="cls-111" cx="54.38" cy="34.46" rx="0.18" ry="0.2"></ellipse></g></g><g id="_8" data-name="8"><path class="cls-2" d="M684.11,39.89A9.73,9.73,0,1,0,694,49.61,9.8,9.8,0,0,0,684.11,39.89Zm0,17.87a8.15,8.15,0,1,1,8.29-8.15A8.22,8.22,0,0,1,684.11,57.76Zm2.73-7a4.39,4.39,0,0,0-1.12-.85,3.31,3.31,0,0,0,2-.94,2.72,2.72,0,0,0,.68-1.89,2.88,2.88,0,0,0-.45-1.6,2.32,2.32,0,0,0-1.2-1,7.35,7.35,0,0,0-2.4-.28H680V54.43h2.08V50.19h.42a3.33,3.33,0,0,1,1,.12,1.59,1.59,0,0,1,.63.41,15.56,15.56,0,0,1,1.1,1.5l1.51,2.21h2.49l-1.26-2A11.25,11.25,0,0,0,686.84,50.8Zm-3.2-2.23h-1.55V46h1.63c.84,0,1.35,0,1.52,0a1.23,1.23,0,0,1,.78.41,1.15,1.15,0,0,1,.28.82,1.29,1.29,0,0,1-.21.76,1.08,1.08,0,0,1-.59.43A7.41,7.41,0,0,1,683.64,48.57Z"></path></g><path class="cls-3" d="M631.57,121h2.82v9.79a10.33,10.33,0,0,1-.33,3,6,6,0,0,1-.82,1.68,5.62,5.62,0,0,1-1.18,1.21,11.53,11.53,0,0,1-12.23,0,5.72,5.72,0,0,1-1.19-1.22,6,6,0,0,1-.8-1.65,10.84,10.84,0,0,1-.31-3.06V121h2.82v9.79a6.5,6.5,0,0,0,.63,3.38,4.34,4.34,0,0,0,1.92,1.52,7.3,7.3,0,0,0,3,.58,6.7,6.7,0,0,0,4.07-1.15,3.59,3.59,0,0,0,1.19-1.46,7.73,7.73,0,0,0,.37-2.87Z"></path><path class="cls-3" d="M653.84,121h2.67v17.24h-2.42L641,124.92v13.27h-2.63V121h2.27l13.21,13.39Z"></path><path class="cls-3" d="M670.32,120.71a11.38,11.38,0,0,1,7.56,2.53,7.93,7.93,0,0,1,3,6.34,7.82,7.82,0,0,1-3,6.31,11.69,11.69,0,0,1-7.69,2.5,11,11,0,0,1-7.38-2.5,7.88,7.88,0,0,1-2.95-6.26,8,8,0,0,1,3-6.39A11.18,11.18,0,0,1,670.32,120.71Zm.11,2.34a8.23,8.23,0,0,0-5.53,1.85,6,6,0,0,0-2.17,4.73,5.85,5.85,0,0,0,2.18,4.64,8.89,8.89,0,0,0,10.91,0,6,6,0,0,0,2.19-4.7,5.83,5.83,0,0,0-2.19-4.61A8,8,0,0,0,670.43,123.05Z"></path></svg> 